<?xml version="1.0" encoding="UTF-8"?>
<svg id="Layer_1" data-name="Layer 1" xmlns="http://www.w3.org/2000/svg" viewBox="0 0 63.999999991379809 64">
  <style type="text/css">
      .cls-1 {
        fill: none;
      }

      .cls-2 {
        fill: #fff;
      }

      .cls-3 {
        opacity: .600000023841858;
      }
  </style>
  <g>
    <g>
      <path class="cls-2" d="M15.01123046875,34.6259765625c-.55224609375,0-1-.447265625-1-1v-4.412109375c0-.55224609375.44775390625-1,1-1s1,.44775390625,1,1v4.412109375c0,.552734375-.44775390625,1-1,1Z"/>
      <path class="cls-2" d="M49.0107421875,34.6259765625c-.552734375,0-1-.447265625-1-1v-4.412109375c0-.55224609375.447265625-1,1-1s1,.44775390625,1,1v4.412109375c0,.552734375-.447265625,1-1,1Z"/>
      <path class="cls-2" d="M45.2333984375,41.2421875c-.552734375,0-1-.447265625-1-1v-17.6455078125c0-.55224609375.447265625-1,1-1s1,.44775390625,1,1v17.6455078125c0,.552734375-.447265625,1-1,1Z"/>
      <path class="cls-2" d="M41.455078125,36.3896484375c-.552734375,0-1-.447265625-1-1v-7.93994140625c0-.55224609375.447265625-1,1-1s1,.44775390625,1,1v7.93994140625c0,.552734375-.447265625,1-1,1Z"/>
      <path class="cls-2" d="M37.677734375,41.2421875c-.552734375,0-1-.447265625-1-1v-17.6455078125c0-.55224609375.447265625-1,1-1s1,.44775390625,1,1v17.6455078125c0,.552734375-.447265625,1-1,1Z"/>
      <path class="cls-2" d="M33.8994140625,45.654296875c-.552734375,0-1-.447265625-1-1v-26.46875c0-.55224609375.447265625-1,1-1s1,.44775390625,1,1v26.46875c0,.552734375-.447265625,1-1,1Z"/>
      <path class="cls-2" d="M30.1220703125,38.595703125c-.55224609375,0-1-.447265625-1-1v-12.35205078125c0-.55224609375.44775390625-1,1-1s1,.44775390625,1,1v12.35205078125c0,.552734375-.44775390625,1-1,1Z"/>
      <path class="cls-2" d="M26.34423828125,35.94921875c-.55224609375,0-1-.447265625-1-1v-7.05859375c0-.55224609375.44775390625-1,1-1s1,.44775390625,1,1v7.05859375c0,.552734375-.44775390625,1-1,1Z"/>
      <path class="cls-2" d="M22.56640625,43.4482421875c-.55224609375,0-1-.447265625-1-1v-22.05712890625c0-.55224609375.44775390625-1,1-1s1,.44775390625,1,1v22.05712890625c0,.552734375-.44775390625,1-1,1Z"/>
      <path class="cls-2" d="M18.78857421875,38.595703125c-.55224609375,0-1-.447265625-1-1v-12.35205078125c0-.55224609375.44775390625-1,1-1s1,.44775390625,1,1v12.35205078125c0,.552734375-.44775390625,1-1,1Z"/>
    </g>
    <g class="cls-3">
      <path class="cls-2" d="M51.001564025878906,10.419784545898438c1.101943969726562,0,1.998435974121094.896499633789062,1.998435974121094,1.998443603515625v38.003124237060547c0,1.101943969726562-.896492004394531,1.998432159423828-1.998435974121094,1.998432159423828H12.998442649841309c-1.101944923400879,0-1.998444557189941-.896488189697266-1.998444557189941-1.998432159423828V12.418228149414062c0-1.101943969726562.896499633789062-1.998443603515625,1.998444557189941-1.998443603515625h38.003121376037598M51.001564025878906,8.419784545898438H12.998442649841309c-2.208277702331543,0-3.998444557189941,1.790164947509766-3.998444557189941,3.998443603515625v38.003124237060547c0,2.208267211914062,1.790166854858398,3.998432159423828,3.998444557189941,3.998432159423828h38.003121376037598c2.208267211914062,0,3.998435974121094-1.790168762207031,3.998435974121094-3.998432159423828V12.418228149414062c0-2.208278656005859-1.790168762207031-3.998443603515625-3.998435974121094-3.998443603515625h0Z"/>
    </g>
  </g>
  <rect class="cls-1" width="63.999999991379809" height="64"/>
</svg>
