<?xml version="1.0" encoding="UTF-8"?>
<svg id="Layer_1" xmlns="http://www.w3.org/2000/svg" xmlns:xlink="http://www.w3.org/1999/xlink" version="1.1" viewBox="0 0 64 64">
  <!-- Generator: Adobe Illustrator 29.3.0, SVG Export Plug-In . SVG Version: 2.1.0 Build 146)  -->
  <defs>
    <style type="text/css">
      .st0 {
        opacity: .6;
      }

      .st0, .st1 {
        fill: #fff;
      }
    </style>
  </defs>
  <path class="st1" d="M10.0936947,52.1279869c-.3660011-.1580009-.6020012-.519001-.6020012-.9169998V7.2109861c0-.3979998.2369995-.7579994.6020012-.9169998.3640022-.158.7890015-.0860004,1.0810013.1859999l13.2139988,12.3179989h6.6170006c3.0710001,0,5.4759998,2.7000008,5.4759998,6.1459999v8.5149994c0,3.4459991-2.4060001,6.1450005-5.4759998,6.1450005h-6.6170006s-13.2130032,12.3370018-13.2130032,12.3370018c-.1889992.177002-.4339981.2700005-.6829987.2700005-.1349983,0-.2699966-.0270004-.3989983-.0830002ZM31.0056944,20.7989864h-7.0110006c-.2529984,0-.4959984-.0969982-.6819992-.2689991l-11.8200016-11.019001v39.3990021s11.8180008-11.0359993,11.8180008-11.0359993c.1850014-.1730003.4300003-.2700005.6830006-.2700005h7.0120001c2.1759996,0,3.4759998-2.1080017,3.4759998-4.1450005v-8.5150013c0-2.0380001-1.3000002-4.1459999-3.4759998-4.1459999v.0009995Z"/>
  <path class="st0" d="M56.2211304,18.7056885h-12.015686c-1.4886475,0-2.6954346,1.2067871-2.6954346,2.6954346v7.8100586h-5.0283203v2.0314331h5.0283203v10.9172363c0,1.4886475,1.2067871,2.6954346,2.6954346,2.6954346h5.7567139v4.3781128h-27.4194336v-7.9058228l-2,1.8673706v6.0698853h-.7637939c-1.4887085,0-2.6954956,1.2067871-2.6954956,2.6954956v.6385498c0,1.4886475,1.2067871,2.6954346,2.6954956,2.6954346h32.8945923c1.4886475,0,2.6954346-1.2067871,2.6954346-2.6954346v-.6385498c0-1.4887085-1.2067871-2.6954956-2.6954346-2.6954956h-.7113647v-4.4095459h4.2589722c1.4886475,0,2.6954346-1.2067871,2.6954346-2.6954346v-20.758728c0-1.4886475-1.2067871-2.6954346-2.6954346-2.6954346ZM52.6735229,51.2648315c.3834839,0,.6954346.3120117.6954346.6954956v.6385498c0,.3834839-.3119507.6954346-.6954346.6954346H19.7789307c-.3834839,0-.6954956-.3119507-.6954956-.6954346v-.6385498c0-.3834839.3120117-.6954956.6954956-.6954956h32.8945923ZM56.9165649,42.1598511c0,.3834839-.3119507.6954346-.6954346.6954346h-12.015686c-.3834839,0-.6954346-.3119507-.6954346-.6954346v-20.758728c0-.3834839.3119507-.6954346.6954346-.6954346h12.015686c.3834839,0,.6954346.3119507.6954346.6954346v20.758728Z"/>
</svg>
