<?xml version="1.0" encoding="UTF-8"?>
<svg id="Layer_1" xmlns="http://www.w3.org/2000/svg" xmlns:xlink="http://www.w3.org/1999/xlink" version="1.1" viewBox="0 0 64 64">
  <!-- Generator: Adobe Illustrator 29.3.0, SVG Export Plug-In . SVG Version: 2.1.0 Build 146)  -->
  <style type="text/css">
      .st0 {
        fill: #fff;
      }

      .st1 {
        opacity: .6;
      }
  </style>
  <path class="st0" d="M32,23.3316689c4.7797318,0,8.6683311,3.8885994,8.6683311,8.6683311s-3.8885994,8.6683292-8.6683311,8.6683292-8.6683292-3.8885994-8.6683292-8.6683292,3.8885994-8.6683311,8.6683292-8.6683311M32,21.3316689c-5.8919601,0-10.6683292,4.776371-10.6683292,10.6683311s4.7763691,10.6683292,10.6683292,10.6683292,10.6683311-4.7763691,10.6683311-10.6683292-4.776371-10.6683311-10.6683311-10.6683311h0Z"/>
  <g class="st1">
    <path class="st0" d="M49.5600891,27.1082497c2.697319,0,4.8917503,2.1944313,4.8917503,4.8917503,0,2.6973209-2.1944313,4.8917503-4.8917503,4.8917503s-4.8917503-2.1944294-4.8917503-4.8917503c0-2.697319,2.1944313-4.8917503,4.8917503-4.8917503M49.5600891,25.1082497c-3.8062096,0-6.8917503,3.0855408-6.8917503,6.8917503s3.0855408,6.8917503,6.8917503,6.8917503,6.8917503-3.0855408,6.8917503-6.8917503-3.0855408-6.8917503-6.8917503-6.8917503h0Z"/>
  </g>
  <g class="st1">
    <path class="st0" d="M14.4399109,27.1082497c2.6973209,0,4.8917503,2.1944313,4.8917503,4.8917503,0,2.6973209-2.1944294,4.8917503-4.8917503,4.8917503s-4.8917503-2.1944294-4.8917503-4.8917503c0-2.697319,2.1944304-4.8917503,4.8917503-4.8917503M14.4399109,25.1082497c-3.8062096,0-6.8917499,3.0855408-6.8917499,6.8917503s3.0855403,6.8917503,6.8917499,6.8917503,6.8917503-3.0855408,6.8917503-6.8917503-3.0855408-6.8917503-6.8917503-6.8917503h0Z"/>
  </g>
</svg>
