<?xml version="1.0" encoding="UTF-8" standalone="no"?>
<!DOCTYPE svg PUBLIC "-//W3C//DTD SVG 1.1//EN" "http://www.w3.org/Graphics/SVG/1.1/DTD/svg11.dtd">
<svg width="100%" height="100%" viewBox="0 0 64 64" version="1.1" xmlns="http://www.w3.org/2000/svg" xmlns:xlink="http://www.w3.org/1999/xlink" xml:space="preserve" xmlns:serif="http://www.serif.com/" style="fill-rule:evenodd;clip-rule:evenodd;stroke-linecap:round;stroke-linejoin:round;stroke-miterlimit:2;">
    <g id="path12" transform="matrix(0.214383,0,0,0.214383,-34.20583,-30.532561)">
        <path d="M431.521,293.719C430.73,296.287 428.995,298.167 427.137,300.018C414.689,312.424 402.28,324.87 389.859,337.302C385.383,341.78 380.6,341.767 376.107,337.27C363.287,324.44 350.466,311.611 337.651,298.779C333.285,294.407 333.287,289.635 337.664,285.253C350.552,272.347 363.442,259.444 376.335,246.545C380.53,242.347 385.459,242.345 389.653,246.541C402.152,259.042 414.632,271.561 427.152,284.037C429.011,285.889 430.738,287.778 431.521,290.347L431.521,293.719Z" style="fill:rgb(49,175,225);fill-opacity:0;stroke:white;stroke-width:9.33px;"/>
    </g>
    <g id="path14" transform="matrix(0.214383,0,0,0.214383,-34.20583,-30.532561)">
        <path d="M307.953,413.914C305.397,413.102 303.545,411.332 301.702,409.478C289.307,397.02 276.874,384.601 264.455,372.166C260.011,367.716 260.006,362.968 264.44,358.528C277.295,345.663 290.149,332.799 303.007,319.936C307.281,315.662 312.178,315.646 316.429,319.899C329.285,332.763 342.14,345.628 354.992,358.496C359.407,362.917 359.42,367.76 355.023,372.16C342.496,384.701 329.948,397.226 317.45,409.793C315.661,411.591 313.821,413.208 311.327,413.913L307.953,413.913L307.953,413.914Z" style="fill:rgb(49,175,225);fill-opacity:0;stroke:white;stroke-width:9.33px;"/>
    </g>
    <g id="path16" transform="matrix(0.214383,0,0,0.214383,-34.20583,-30.532561)">
        <path d="M262.841,261.207C262.841,246.904 262.97,232.599 262.76,218.298C262.699,214.158 263.688,210.924 266.849,208.194C269.392,205.996 271.646,203.461 274.028,201.076C283.451,191.643 292.873,182.209 302.299,172.78C306.732,168.348 311.512,168.351 315.942,172.782C328.763,185.607 341.583,198.435 354.401,211.264C358.804,215.671 358.801,220.518 354.398,224.927C339.238,240.106 324.072,255.283 308.908,270.46C295.517,283.865 282.128,297.269 268.735,310.672C266.254,313.154 264.056,312.577 263.154,309.136C262.876,308.07 262.854,306.917 262.853,305.804C262.835,290.938 262.841,276.072 262.841,261.207" style="fill:rgb(49,175,225);fill-opacity:0;stroke:white;stroke-width:9.33px;"/>
    </g>
    <g id="path18" transform="matrix(0.214383,0,0,0.214383,-34.20583,-30.532561)">
        <path d="M232.182,292.201C232.182,305.328 232.201,318.457 232.156,331.584C232.151,332.831 231.953,334.151 231.506,335.308C230.63,337.587 228.986,337.869 227.265,336.152C221.228,330.125 215.208,324.081 209.182,318.045C202.217,311.068 195.25,304.092 188.288,297.111C185.406,294.222 185.393,290.213 188.264,287.31C201.084,274.343 213.907,261.377 226.736,248.415C227.584,247.558 228.384,246.395 229.825,246.94C231.203,247.46 231.747,248.703 231.943,250.081C232.065,250.935 232.161,251.803 232.163,252.664C232.176,265.843 232.172,279.023 232.172,292.201L232.182,292.201Z" style="fill:rgb(49,175,225);fill-opacity:0;stroke:white;stroke-width:9.33px;"/>
    </g>
</svg>
