<?xml version="1.0" encoding="UTF-8"?>
<svg id="Layer_1" xmlns="http://www.w3.org/2000/svg" xmlns:xlink="http://www.w3.org/1999/xlink" version="1.1" viewBox="0 0 64 64">
  <!-- Generator: Adobe Illustrator 29.3.0, SVG Export Plug-In . SVG Version: 2.1.0 Build 146)  -->
  <style type="text/css">
      .st0 {
        fill: #fff;
      }

      .st1 {
        opacity: .6;
      }
  </style>
  <g class="st1">
    <path class="st0" d="M32,9.5c7.7199669,0,14.8100777,3.8859444,18.9660454,10.3948898.0680656.1066055.0393066.2640953-.0597343.3687706l-14.2321434,8.41745-.0928001.0548897-.0863686.0645447c-1.0153999.7588768-1.6005325,1.9211311-1.6053886,3.1887665-.0048447,1.267622.5713882,2.4343224,1.5809555,3.2009449l.0859909.0653.0925331.055666,14.1889992,8.5359268c.0979118.1051674.1255989.2623405.0572433.3680515-4.1648445,6.440011-11.2285233,10.2847996-18.8953323,10.2847996-12.4065456,0-22.5-10.0934563-22.5-22.5s10.0934544-22.5,22.5-22.5M32,7.5c-13.4403,0-24.5000005,11.0597-24.5000005,24.5s11.0597005,24.5,24.5000005,24.5c8.3474121,0,16.0913124-4.266078,20.5747337-11.1987114.6531563-1.0099659.3860664-2.3600445-.5718346-3.0874214l-14.3228226-8.6164341c-1.0590553-.8041992-1.0529556-2.3987904.0122223-3.1948681l14.3663673-8.49683c.9649124-.7211342,1.241333-2.0718575.5930672-3.0871582-4.4697227-7.0003433-12.2534561-11.3185768-20.6517334-11.3185768h0Z"/>
  </g>
  <path class="st0" d="M37.9970474,15.8647346c-1.6568565,0-3,1.3431435-3,3s1.3431435,3,3,3,3-1.3431435,3-3-1.3431435-3-3-3h0Z"/>
</svg>
